<mxfile host="app.diagrams.net" modified="2022-04-17T15:22:22.843Z" agent="5.0 (Windows)" etag="3XYE5IT6q4Z9frguraH-" version="17.3.0" type="github" pages="2">
  <diagram id="iNyS8jjP5iytRrqQWfrn" name="thread-state">
    <mxGraphModel dx="466" dy="762" grid="1" gridSize="10" guides="1" tooltips="1" connect="1" arrows="1" fold="1" page="1" pageScale="1" pageWidth="827" pageHeight="1169" math="0" shadow="0">
      <root>
        <mxCell id="0" />
        <mxCell id="1" parent="0" />
        <mxCell id="xnKiWxKvvW1BNjy2lwpN-5" value="阻塞状态" style="rounded=0;whiteSpace=wrap;html=1;" vertex="1" parent="1">
          <mxGeometry x="489" y="400" width="100" height="40" as="geometry" />
        </mxCell>
        <mxCell id="xnKiWxKvvW1BNjy2lwpN-6" value="死亡状态" style="rounded=0;whiteSpace=wrap;html=1;align=center;" vertex="1" parent="1">
          <mxGeometry x="244" y="490" width="100" height="40" as="geometry" />
        </mxCell>
        <mxCell id="xnKiWxKvvW1BNjy2lwpN-21" style="edgeStyle=orthogonalEdgeStyle;rounded=0;orthogonalLoop=1;jettySize=auto;html=1;exitX=0.5;exitY=1;exitDx=0;exitDy=0;align=center;" edge="1" parent="1" source="xnKiWxKvvW1BNjy2lwpN-20" target="xnKiWxKvvW1BNjy2lwpN-23">
          <mxGeometry relative="1" as="geometry">
            <mxPoint x="299" y="280" as="targetPoint" />
          </mxGeometry>
        </mxCell>
        <mxCell id="xnKiWxKvvW1BNjy2lwpN-22" value="执行start()方法" style="edgeLabel;html=1;align=center;verticalAlign=middle;resizable=0;points=[];" vertex="1" connectable="0" parent="xnKiWxKvvW1BNjy2lwpN-21">
          <mxGeometry x="-0.3556" y="-3" relative="1" as="geometry">
            <mxPoint x="3" y="11" as="offset" />
          </mxGeometry>
        </mxCell>
        <mxCell id="xnKiWxKvvW1BNjy2lwpN-20" value="新建状态" style="rounded=0;whiteSpace=wrap;html=1;align=center;" vertex="1" parent="1">
          <mxGeometry x="239" y="170" width="110" height="40" as="geometry" />
        </mxCell>
        <mxCell id="xnKiWxKvvW1BNjy2lwpN-27" style="edgeStyle=orthogonalEdgeStyle;rounded=0;orthogonalLoop=1;jettySize=auto;html=1;exitX=0.5;exitY=1;exitDx=0;exitDy=0;entryX=0.5;entryY=0;entryDx=0;entryDy=0;align=center;" edge="1" parent="1" source="xnKiWxKvvW1BNjy2lwpN-23" target="xnKiWxKvvW1BNjy2lwpN-25">
          <mxGeometry relative="1" as="geometry">
            <mxPoint x="294" y="470" as="targetPoint" />
            <Array as="points" />
          </mxGeometry>
        </mxCell>
        <mxCell id="xnKiWxKvvW1BNjy2lwpN-28" value="执行run()方法" style="edgeLabel;html=1;align=center;verticalAlign=middle;resizable=0;points=[];" vertex="1" connectable="0" parent="xnKiWxKvvW1BNjy2lwpN-27">
          <mxGeometry x="-0.3692" relative="1" as="geometry">
            <mxPoint as="offset" />
          </mxGeometry>
        </mxCell>
        <mxCell id="xnKiWxKvvW1BNjy2lwpN-23" value="就绪状态" style="rounded=0;whiteSpace=wrap;html=1;align=center;" vertex="1" parent="1">
          <mxGeometry x="239" y="300" width="110" height="40" as="geometry" />
        </mxCell>
        <mxCell id="xnKiWxKvvW1BNjy2lwpN-29" style="edgeStyle=orthogonalEdgeStyle;rounded=0;orthogonalLoop=1;jettySize=auto;html=1;align=center;" edge="1" parent="1" source="xnKiWxKvvW1BNjy2lwpN-25" target="xnKiWxKvvW1BNjy2lwpN-6">
          <mxGeometry relative="1" as="geometry">
            <mxPoint x="289" y="560" as="targetPoint" />
          </mxGeometry>
        </mxCell>
        <mxCell id="xnKiWxKvvW1BNjy2lwpN-30" value="run()方法执行完成" style="edgeLabel;html=1;align=center;verticalAlign=middle;resizable=0;points=[];" vertex="1" connectable="0" parent="xnKiWxKvvW1BNjy2lwpN-29">
          <mxGeometry x="-0.728" y="-4" relative="1" as="geometry">
            <mxPoint y="13" as="offset" />
          </mxGeometry>
        </mxCell>
        <mxCell id="xnKiWxKvvW1BNjy2lwpN-25" value="运行状态" style="rounded=0;whiteSpace=wrap;html=1;align=center;" vertex="1" parent="1">
          <mxGeometry x="239" y="400" width="110" height="40" as="geometry" />
        </mxCell>
      </root>
    </mxGraphModel>
  </diagram>
  <diagram id="Hs_MNnLOcPMlgcf6MfTu" name="ExecutorService">
    <mxGraphModel dx="1422" dy="752" grid="1" gridSize="10" guides="1" tooltips="1" connect="1" arrows="1" fold="1" page="1" pageScale="1" pageWidth="827" pageHeight="1169" math="0" shadow="0">
      <root>
        <mxCell id="0" />
        <mxCell id="1" parent="0" />
      </root>
    </mxGraphModel>
  </diagram>
</mxfile>
